<svg xmlns="http://www.w3.org/2000/svg" viewBox="0 0 2047 419" role="img" aria-labelledby="title desc">
  <title id="title">Blue Bomber Logistics</title>
  <desc id="desc">Vector Blue Bomber Logistics brand mark with blue BLUE lettering, silver BOMBER and LOGISTICS lettering, and side arrows.</desc>
  <defs>
    <linearGradient id="blueMark" x1="0" y1="0" x2="0" y2="1">
      <stop offset="0" stop-color="#0643ff"/>
      <stop offset="0.52" stop-color="#0034d9"/>
      <stop offset="1" stop-color="#001f87"/>
    </linearGradient>
    <linearGradient id="silver" x1="0" y1="0" x2="0" y2="1">
      <stop offset="0" stop-color="#96999a"/>
      <stop offset="0.42" stop-color="#5f6263"/>
      <stop offset="0.56" stop-color="#d8dbdc"/>
      <stop offset="1" stop-color="#55585a"/>
    </linearGradient>
    <linearGradient id="silverDark" x1="0" y1="0" x2="1" y2="1">
      <stop offset="0" stop-color="#8a8d8f"/>
      <stop offset="1" stop-color="#424547"/>
    </linearGradient>
    <filter id="softShadow" x="-3%" y="-5%" width="106%" height="114%">
      <feDropShadow dx="0" dy="4" stdDeviation="2.2" flood-color="#0a1018" flood-opacity="0.24"/>
    </filter>
    <symbol id="blue-b" viewBox="0 0 118 170">
      <path fill-rule="evenodd" d="M2 5h66c34 0 51 15 51 43 0 17-8 30-25 38 21 8 31 21 31 40 0 29-20 44-59 44H2V5Zm30 28v40h31c16 0 24-7 24-20s-8-20-24-20H32Zm0 66v43h34c18 0 27-7 27-21 0-15-9-22-27-22H32Z"/>
    </symbol>
    <symbol id="blue-l" viewBox="0 0 110 170">
      <path d="M7 5h34v133h67v32H7V5Z"/>
    </symbol>
    <symbol id="blue-u" viewBox="0 0 122 170">
      <path d="M8 5h34v102c0 22 7 33 20 33s20-11 20-33V5h34v105c0 41-19 61-54 61S8 151 8 110V5Z"/>
    </symbol>
    <symbol id="blue-e" viewBox="0 0 115 170">
      <path d="M8 5h102v31H42v34h60v29H42v40h70v31H8V5Z"/>
    </symbol>
  </defs>

  <g filter="url(#softShadow)" transform="skewX(-9)">
    <use href="#blue-b" x="65" y="34" width="190" height="214" fill="url(#blueMark)"/>
    <use href="#blue-l" x="258" y="34" width="172" height="214" fill="url(#blueMark)"/>
    <use href="#blue-u" x="430" y="34" width="196" height="214" fill="url(#blueMark)"/>
    <use href="#blue-e" x="626" y="34" width="180" height="214" fill="url(#blueMark)"/>
  </g>

  <path d="M62 144h760" stroke="#f7f9fb" stroke-width="4" opacity="0.78"/>
  <path d="M66 146h756" stroke="#0a1b63" stroke-width="2" opacity="0.4"/>

  <g transform="translate(810 44) skewX(-9)" fill="none" stroke="url(#silver)" stroke-width="19" stroke-linecap="square" stroke-linejoin="round" filter="url(#softShadow)">
    <path d="M0 0h82c39 0 58 17 58 50 0 20-10 35-31 44 26 8 39 25 39 51 0 36-23 55-68 55H0V0Zm31 31v50h48c21 0 32-9 32-25s-11-25-32-25H31Zm0 80v58h53c24 0 36-10 36-29 0-20-12-29-36-29H31Z"/>
    <path d="M215 100c0-62 34-103 86-103s86 41 86 103-34 103-86 103-86-41-86-103Z"/>
    <path d="M456 200V0h35l62 137L616 0h35v200"/>
    <path d="M725 0h82c39 0 58 17 58 50 0 20-10 35-31 44 26 8 39 25 39 51 0 36-23 55-68 55h-80V0Zm31 31v50h48c21 0 32-9 32-25s-11-25-32-25h-48Zm0 80v58h53c24 0 36-10 36-29 0-20-12-29-36-29h-53Z"/>
    <path d="M944 0h137M944 0v200M944 100h112M944 200h141"/>
    <path d="M1150 200V0h83c42 0 65 21 65 58 0 30-18 50-52 58l58 84M1181 31v69h50c24 0 38-13 38-35s-14-34-38-34h-50"/>
  </g>

  <path d="M820 144h1138" stroke="#f7f9fb" stroke-width="4" opacity="0.68"/>
  <path d="M821 146h1138" stroke="#4d5052" stroke-width="2" opacity="0.5"/>

  <g fill="url(#silver)" filter="url(#softShadow)">
    <path d="M72 344l134-16v32L72 344Z"/>
    <path d="M1975 344l-134-16v32l134-16Z"/>
  </g>

  <g transform="translate(248 300)" fill="none" stroke="url(#silverDark)" stroke-width="30" stroke-linecap="square" stroke-linejoin="bevel" filter="url(#softShadow)">
    <path d="M0 0v76h88"/>
    <path d="M195 0h92v76h-92V0Z"/>
    <path d="M411 0h100v28M411 0v76h100V44h-45"/>
    <path d="M630 0v76"/>
    <path d="M758 0h92M758 0v38h92v38h-92"/>
    <path d="M966 0h118M1025 0v76"/>
    <path d="M1202 0v76"/>
    <path d="M1330 0h96M1330 0v76h96"/>
    <path d="M1549 0h92M1549 0v38h92v38h-92"/>
  </g>
</svg>
